<mxfile host="app.diagrams.net" agent="Mozilla/5.0 (Windows NT 10.0; Win64; x64) AppleWebKit/537.36 (KHTML, like Gecko) Chrome/126.0.0.0 Safari/537.36 Avast/126.0.0.0" version="28.2.0">
  <diagram name="Page-1" id="MJIfw9Xfixav2o8gxMMa">
    <mxGraphModel dx="1506" dy="1131" grid="1" gridSize="10" guides="1" tooltips="1" connect="1" arrows="1" fold="1" page="1" pageScale="1" pageWidth="1100" pageHeight="850" math="0" shadow="0">
      <root>
        <mxCell id="0" />
        <mxCell id="1" parent="0" />
        <mxCell id="7YQjvosz25pRn5sGRjC9-1" value="" style="rounded=0;whiteSpace=wrap;html=1;fillColor=light-dark(#FFFFFF,#FFFFFF);movable=0;resizable=0;rotatable=0;deletable=0;editable=0;locked=1;connectable=0;" parent="1" vertex="1">
          <mxGeometry x="40" y="40" width="1040" height="770" as="geometry" />
        </mxCell>
        <mxCell id="c9pFDxgWKYqPfjZnPTOq-1" value="" style="edgeStyle=orthogonalEdgeStyle;rounded=0;orthogonalLoop=1;jettySize=auto;html=1;" parent="1" edge="1">
          <mxGeometry relative="1" as="geometry">
            <mxPoint x="415" y="274" as="targetPoint" />
          </mxGeometry>
        </mxCell>
        <mxCell id="ezkjjZ4eAbXDMJmgoiN_-70" value="" style="rounded=0;whiteSpace=wrap;html=1;fillColor=light-dark(#FFFFFF,#CCFFCC);" vertex="1" parent="1">
          <mxGeometry x="320" y="210" width="480" height="430" as="geometry" />
        </mxCell>
        <mxCell id="ezkjjZ4eAbXDMJmgoiN_-71" value="Login" style="text;html=1;align=center;verticalAlign=middle;whiteSpace=wrap;rounded=0;fontColor=light-dark(#000000,#003300);fontSize=48;fontStyle=1;fontFamily=Helvetica;" vertex="1" parent="1">
          <mxGeometry x="460" y="260" width="180" height="60" as="geometry" />
        </mxCell>
        <mxCell id="ezkjjZ4eAbXDMJmgoiN_-72" value="" style="rounded=0;whiteSpace=wrap;html=1;fillColor=light-dark(#FFFFFF,#FFFFFF);" vertex="1" parent="1">
          <mxGeometry x="400" y="360" width="330" height="50" as="geometry" />
        </mxCell>
        <mxCell id="ezkjjZ4eAbXDMJmgoiN_-73" value="" style="rounded=0;whiteSpace=wrap;html=1;fillColor=light-dark(#FFFFFF,#FFFFFF);" vertex="1" parent="1">
          <mxGeometry x="400" y="437" width="330" height="50" as="geometry" />
        </mxCell>
        <mxCell id="ezkjjZ4eAbXDMJmgoiN_-74" value="" style="rounded=1;whiteSpace=wrap;html=1;fillColor=light-dark(#FFFFFF,#003300);" vertex="1" parent="1">
          <mxGeometry x="400" y="530" width="330" height="50" as="geometry" />
        </mxCell>
        <mxCell id="ezkjjZ4eAbXDMJmgoiN_-75" value="Login" style="text;html=1;align=center;verticalAlign=middle;whiteSpace=wrap;rounded=0;fontSize=23;" vertex="1" parent="1">
          <mxGeometry x="535" y="540" width="60" height="30" as="geometry" />
        </mxCell>
        <mxCell id="ezkjjZ4eAbXDMJmgoiN_-76" value="Username" style="text;html=1;align=left;verticalAlign=middle;whiteSpace=wrap;rounded=0;fontColor=light-dark(#000000,#4D4D4D);fontSize=19;" vertex="1" parent="1">
          <mxGeometry x="420" y="370" width="170" height="30" as="geometry" />
        </mxCell>
        <mxCell id="ezkjjZ4eAbXDMJmgoiN_-77" value="Password" style="text;html=1;align=left;verticalAlign=middle;whiteSpace=wrap;rounded=0;fontColor=light-dark(#000000,#4D4D4D);fontSize=19;" vertex="1" parent="1">
          <mxGeometry x="420" y="447" width="170" height="30" as="geometry" />
        </mxCell>
      </root>
    </mxGraphModel>
  </diagram>
</mxfile>
